<svg id="Layer_1" data-name="Layer 1" xmlns="http://www.w3.org/2000/svg" viewBox="0 0 61.14 46.27"><defs><style>.cls-1,.cls-15,.cls-3{fill:none;}.cls-1{stroke:#fff;stroke-width:0.94px;}.cls-1,.cls-10,.cls-11,.cls-12,.cls-13,.cls-15,.cls-3,.cls-4,.cls-5,.cls-6,.cls-7,.cls-8,.cls-9{stroke-linecap:round;stroke-linejoin:round;}.cls-2,.cls-7{fill:#231f20;}.cls-10,.cls-11,.cls-12,.cls-13,.cls-14,.cls-15,.cls-3,.cls-4,.cls-7,.cls-9{stroke:#231f20;}.cls-10,.cls-11,.cls-12,.cls-3,.cls-4,.cls-7,.cls-8,.cls-9{stroke-width:0.13px;}.cls-13,.cls-4{fill:#f1f1f2;}.cls-5{fill:#bbbdbf;stroke:#d0d2d3;stroke-width:0.27px;}.cls-6,.cls-9{fill:#404041;}.cls-6{stroke:#6d6e70;}.cls-13,.cls-14,.cls-6{stroke-width:0.07px;}.cls-14,.cls-6,.cls-8{opacity:0.5;}.cls-8{fill:#58595b;stroke:#929497;}.cls-10{fill:#a6a8ab;}.cls-11{fill:#8a5d3b;}.cls-12{fill:#fff;}.cls-14{fill:#e6e7e8;stroke-miterlimit:10;}.cls-15{stroke-width:0.4px;}</style></defs><title>ragacs</title><g id="ragacsFej"><path id="outline" class="cls-1" d="M46.29,34.58C54.23,31.39,53.9,29,51.21,20.1c9.58-8.31,4-11.7,6.4-13.79L61,7.09c-.41-3.38-1.68-5.37-4.6-4.67C54.57.79,50,2,46.13,1c-5.24.3-10.09.8-7.45,5.11a56.32,56.32,0,0,0-10.24,5c-4.1-.37-4.36,1.93-8.6,4.33C14.69,11.53,10.31,15.35,6,20-.06,22.65-1,32,4.23,27.4l8.27,2.36c3.33,4.24,7.79-.21,9.21,1.81a49,49,0,0,0,6,14.26c6.21,1.45,10.6-.35,13.93-3.9C44.45,39.81,46.5,37.5,46.29,34.58Z" transform="translate(-0.36 -0.53)"/><path id="outline-2" data-name="outline" class="cls-2" d="M46.29,34.58C54.23,31.39,53.9,29,51.21,20.1c9.58-8.31,4-11.7,6.4-13.79L61,7.09c-.41-3.38-1.68-5.37-4.6-4.67C54.57.79,50,2,46.13,1c-5.24.3-10.09.8-7.45,5.11a56.32,56.32,0,0,0-10.24,5c-4.1-.37-4.36,1.93-8.6,4.33C14.69,11.53,10.31,15.35,6,20-.06,22.65-1,32,4.23,27.4l8.27,2.36c3.33,4.24,7.79-.21,9.21,1.81a49,49,0,0,0,6,14.26c6.21,1.45,10.6-.35,13.93-3.9C44.45,39.81,46.5,37.5,46.29,34.58Z" transform="translate(-0.36 -0.53)"/><path class="cls-3" d="M19.47,26.37c1.25,4,5.08,2.1,4.59-.52C23.38,22.64,18.57,22.12,19.47,26.37Z" transform="translate(-0.36 -0.53)"/><path id="arc" class="cls-4" d="M28.17,12c-10.13.47,2.6,4.37.66,13.46C25,27.06,23.61,30.76,23,35.84a52.82,52.82,0,0,0,4.78,10c4.65,1.42,10.91-.16,13.93-3.9,2.87-1.84,4.94-4.88,4.63-7.35,0,0-1.78-1.87-3.7-1,1.14-5.38-4.13-7.61-9-10-3.56-2.22-2.74-6.71-2.38-14Z" transform="translate(-0.36 -0.53)"/><path class="cls-5" d="M25.66,31.55c.86-1.31,9.71-2.71,12.37.85-4.53.34.4,6.23,2.39,9.87a14.53,14.53,0,0,1-12.13,3.6C25.31,42.65,22.09,34.5,25.66,31.55Z" transform="translate(-0.36 -0.53)"/><path class="cls-6" d="M23.3,12.94c1,2.15-2,5.34-1.73,7.78-2.22,1.11-3.23,2.2-3.22,4.89a8.43,8.43,0,0,1,2.11-5.37c.52-.58.06-5.36.83-5.72Z" transform="translate(-0.36 -0.53)"/><path class="cls-6" d="M35.29,7.52a15.59,15.59,0,0,1,10,6.73L44.14,15c-4.38-3.78-10.3-4.67-13.11-1.31l.23-4.09Z" transform="translate(-0.36 -0.53)"/><path class="cls-6" d="M46.34,13.4c1.68-.56,4.27,2.53,4.95,6.64,2.84,9.37,2.61,11.67-5,14.54q-1.95-1.76-3.7-1c.4-3.09-.62-5.15-2.65-6.45L39.05,24c2.56-.25,4-3.28,5-7.14C46.49,16.15,44.88,13.89,46.34,13.4Z" transform="translate(-0.36 -0.53)"/><path class="cls-7" d="M24.26,37.93c5.17,9,14.11,4.12,10.67-4.52-3.46-1.87-7.14-1.95-8.22.17C24.45,33.43,23.45,35.31,24.26,37.93Z" transform="translate(-0.36 -0.53)"/><path class="cls-8" d="M34.93,33.41l.66,2.36a6.6,6.6,0,0,1-1.07,5.11c-.5-2.37.17-5.08-1-5.76L33,35a5.67,5.67,0,0,0-2.26.21Q31.13,31.76,34.93,33.41Z" transform="translate(-0.36 -0.53)"/><path class="cls-8" d="M30.28,38c1,.78,1.83.9,2.46.37A3,3,0,0,0,30.28,38Z" transform="translate(-0.36 -0.53)"/><path class="cls-9" d="M36,18.88c1.16,4.42,5.88,2.32,6.7-1.11C42.05,14.13,35.15,14.08,36,18.88Z" transform="translate(-0.36 -0.53)"/><path class="cls-10" d="M36.27,19c.56,3.46,6.09,1.88,5.88-1.64C40.11,14.42,35.79,16,36.27,19Z" transform="translate(-0.36 -0.53)"/><path class="cls-11" d="M36.27,19c.6,3.45,6.09,2,5-1.31S35.75,16,36.27,19Z" transform="translate(-0.36 -0.53)"/><path class="cls-7" d="M37,18.35c.41,2.32,4,1.38,3.23-.85A1.67,1.67,0,0,0,37,18.35Z" transform="translate(-0.36 -0.53)"/><path class="cls-12" d="M39,17.05c.62-.37,1.16-.45,1.53.2C40.28,17.51,39.68,17.31,39,17.05Z" transform="translate(-0.36 -0.53)"/><path class="cls-10" d="M19.65,26.52c-.88-3.31,2.61-4.28,4.1-.85C24.44,28.6,20.56,29.94,19.65,26.52Z" transform="translate(-0.36 -0.53)"/><path class="cls-11" d="M19.85,26.5c-.83-3.18,1.79-3.36,3.09-.9C24.43,28.41,20.69,29.69,19.85,26.5Z" transform="translate(-0.36 -0.53)"/><path class="cls-7" d="M20.28,26.29c.63,1.37,2,1.43,1.91.2C22,23.74,19.43,24.44,20.28,26.29Z" transform="translate(-0.36 -0.53)"/><path class="cls-13" d="M19.89,26.13l.52.21c-.17-.6-.4-.84-.67-.72Z" transform="translate(-0.36 -0.53)"/><path class="cls-14" d="M22.6,24.64a1.26,1.26,0,0,1,.77.41,1.82,1.82,0,0,1,.45,1.56l-.65-.47-.72-1.29Z" transform="translate(-0.36 -0.53)"/><path class="cls-15" d="M28.13,46c1.83-.87,3.13-2.09,4.78-2.78,2.36-.25,4.72-.15,7.51-.9" transform="translate(-0.36 -0.53)"/></g></svg>